HIERARCHY
ROOT Hips
{
	OFFSET 0.000000 0.000000 0.000000 
	CHANNELS 6 Xposition Yposition Zposition Yrotation Zrotation Xrotation 
	JOINT Lumbar
	{
		OFFSET 0.000000 0.000000 0.000000 
		CHANNELS 3 Zrotation Xrotation Yrotation
		JOINT Neck
		{
			OFFSET 0.000000 0.445665 0.000000 
			CHANNELS 3 Zrotation Xrotation Yrotation
			End Site
			{
				OFFSET 0.000000 0.227535 0.000000 
			}
		}
		JOINT RightShoulder
		{
			OFFSET 0.019635 0.377685 0.194865 
			CHANNELS 3 Zrotation Xrotation Yrotation
			JOINT RightElbow
			{
				OFFSET 0.000000 -0.243375 0.000000 
				CHANNELS 2 Zrotation Yrotation
				JOINT RightWrist
				{
					OFFSET 0.000000 -0.264825 0.000000 
					CHANNELS 2 Zrotation Xrotation
					End Site
					{
						OFFSET 0.006600 -0.176220 0.000990 
					}
				}
			}
		}
		JOINT LeftShoulder
		{
			OFFSET 0.019635 0.377685 -0.194865 
			CHANNELS 3 Zrotation Xrotation Yrotation
			JOINT LeftElbow
			{
				OFFSET 0.000000 -0.243375 0.000000 
				CHANNELS 2 Zrotation Yrotation
				JOINT LeftWrist
				{
					OFFSET 0.000000 -0.264825 0.000000 
					CHANNELS 2 Zrotation Xrotation
					End Site
					{
						OFFSET 0.006600 -0.176220 -0.000990 
					}
				}
			}
		}
	}
	JOINT RightHip
	{
		OFFSET 0.052140 -0.069960 0.075570 
		CHANNELS 3 Zrotation Xrotation Yrotation
		JOINT RightKnee
		{
			OFFSET 0.000000 -0.402270 0.000000 
			CHANNELS 1 Zrotation
			JOINT RightAnkle
			{
				OFFSET 0.000000 -0.404085 0.000000 
				CHANNELS 3 Zrotation Xrotation Yrotation
				End Site
				{
					OFFSET 0.204105 -0.089430 0.008415 
				}
			}
		}
	}
	JOINT LeftHip
	{
		OFFSET 0.052140 -0.069960 -0.075570 
		CHANNELS 3 Zrotation Xrotation Yrotation
		JOINT LeftKnee
		{
			OFFSET 0.000000 -0.402270 0.000000 
			CHANNELS 1 Zrotation
			JOINT LeftAnkle
			{
				OFFSET 0.000000 -0.404085 0.000000 
				CHANNELS 3 Zrotation Xrotation Yrotation
				End Site
				{
					OFFSET 0.204105 -0.089430 -0.008415 
				}
			}
		}
	}
}
MOTION
Frames: 14
Frame Time: 0.02
-0.01532 0.00043 -0.00413 -537.98215 -32.69784 -3.12314 48.30673 0.88471 -3.84281 -9.62993 -2.6965 -0.29098 -20.69591 -6.58059 -4.68811 40.13892 129.54738 14.0486 9.70474 -28.55321 12.47082 -0.07702 43.13061 -73.16276 7.98846 3.56019 33.99181 -1.49652 -10.24315 -20.72389 -7.82926 -3.20453 -3.85522 37.30649 10.9904 4.66225 -26.71697 -8.54847 3.46845 4.02677
-0.01158 0.00069 -0.00469 -537.72068 -32.8088 -3.0314 47.90309 0.92064 -3.90114 -9.50016 -2.59649 -0.3378 -20.19378 -6.94711 -3.91468 39.79271 125.49898 13.34669 8.72128 -27.5504 12.35775 0.11643 42.15045 -77.28493 8.90506 2.82445 34.29445 -1.64842 -10.94842 -20.72171 -7.82985 -3.17208 -3.83962 37.71826 11.02382 5.03355 -26.73387 -8.55891 3.41481 3.99901
-0.00784 0.00094 -0.00525 -537.45988 -32.91986 -2.93989 47.49962 0.95658 -3.95927 -9.37033 -2.49659 -0.38456 -19.69172 -7.31259 -3.14318 39.44684 121.46276 12.647 7.74084 -26.54896 12.24538 0.30758 41.17315 -81.38928 9.81754 2.09188 34.59738 -1.79985 -11.65084 -20.71967 -7.83054 -3.13982 -3.82412 38.13001 11.05665 5.40206 -26.75085 -8.56949 3.36145 3.97141
-0.00411 0.00119 -0.00581 -537.19919 -33.03053 -2.84842 47.09708 0.99241 -4.01742 -9.24089 -2.39686 -0.43125 -19.19092 -7.67799 -2.37208 39.10155 117.42664 11.94724 6.76038 -25.54898 12.13271 0.50018 40.19593 -85.49778 10.73107 1.35858 34.89925 -1.95127 -12.3538 -20.7175 -7.83115 -3.10749 -3.80858 38.54068 11.08987 5.77188 -26.76772 -8.57993 3.308 3.94375
-0.00039 0.00145 -0.00637 -536.9379 -33.14097 -2.75676 46.69469 1.02819 -4.07577 -9.11167 -2.29708 -0.47796 -18.69054 -8.04441 -1.59919 38.75626 113.37887 11.24532 5.77701 -24.54824 12.01923 0.69566 39.21607 -89.62642 11.64928 0.6217 35.20049 -2.10321 -13.05996 -20.71518 -7.83161 -3.07494 -3.79292 38.95099 11.1239 6.14529 -26.78445 -8.59016 3.25422 3.9159
0.00337 0.0017 -0.00693 -536.67816 -33.25337 -2.66558 46.28891 1.06445 -4.13343 -8.98056 -2.19694 -0.52482 -18.18497 -8.4079 -0.83063 38.40926 109.36737 10.55043 4.80281 -23.54536 11.90923 0.87766 38.24429 -93.67971 12.54974 -0.10179 35.507 -2.25355 -13.75453 -20.71374 -7.83278 -3.04326 -3.77774 39.36581 11.15424 6.50361 -26.80196 -8.60145 3.20176 3.8888
0.00706 0.00195 -0.00749 -536.41555 -33.36158 -2.57351 45.89062 1.0997 -4.19245 -8.85344 -2.09767 -0.57134 -17.69054 -8.77684 -0.05433 38.06587 105.28648 9.84198 3.81107 -22.54804 11.79229 1.08675 37.25696 -97.8788 13.48459 -0.85119 35.80227 -2.40688 -14.47136 -20.71043 -7.83254 -3.00991 -3.76164 39.77084 11.19184 6.89135 -26.81787 -8.61063 3.14673 3.86025
0.01082 0.0022 -0.00805 -536.15567 -33.47387 -2.48229 45.48504 1.1359 -4.25012 -8.72255 -1.99754 -0.61817 -17.18561 -9.14083 0.71505 37.71953 101.27108 9.14633 2.83581 -21.54533 11.68187 1.27054 36.28465 -101.94593 14.38835 -1.57715 36.10845 -2.55757 -15.16823 -20.70906 -7.83356 -2.97803 -3.74635 40.18533 11.223 7.25295 -26.8353 -8.62169 3.09399 3.83299
0.01465 0.00246 -0.0086 -535.89864 -33.59042 -2.39195 45.0717 1.17323 -4.30657 -8.58727 -1.89651 -0.66542 -16.66825 -9.49865 1.4755 37.36782 97.32804 8.46487 1.87907 -20.53632 11.57893 1.42442 35.32753 -105.84265 15.2518 -2.27278 36.42616 -2.70461 -15.83859 -20.7092 -7.83629 -2.9482 -3.7322 40.61008 11.24518 7.57854 -26.85445 -8.63536 3.04437 3.80751
0.01802 0.00272 -0.0092 -535.62373 -33.6803 -2.29606 44.70646 1.20396 -4.37133 -8.4779 -1.80111 -0.71037 -16.22359 -9.89163 2.28594 37.04166 92.9454 7.69739 0.81085 -19.56437 11.43151 1.75342 34.27347 -110.69246 16.34024 -3.1379 36.67213 -2.87136 -16.65513 -20.69809 -7.8297 -2.90734 -3.71191 40.97192 11.31571 8.0991 -26.86328 -8.63495 2.97777 3.77239
0.02239 0.00295 -0.00969 -535.38753 -33.82773 -2.21218 44.23766 1.24865 -4.41774 -8.31351 -1.69355 -0.76008 -15.625 -10.21059 2.99172 36.66511 89.50544 7.11423 -0.01896 -18.51399 11.37881 1.71119 33.43014 -113.54922 16.95849 -3.64866 37.07276 -2.99737 -17.16736 -20.71234 -7.84246 -2.88928 -3.70432 41.4688 11.28637 8.21627 -26.89412 -8.6636 2.94635 3.75723
0.02932 0.00315 -0.00987 -535.2507 -34.1248 -2.15913 43.498 1.33175 -4.42 -7.99918 -1.5547 -0.82394 -14.60399 -10.32367 3.40124 36.12174 88.54596 7.01772 -0.2158 -17.24676 11.58192 0.65398 33.11987 -110.73439 16.23584 -3.15036 37.87678 -3.00363 -16.8022 -20.78428 -7.91129 -2.9383 -3.73398 42.32253 10.96267 7.14928 -26.98494 -8.77828 3.01778 3.80033
0.03729 0.0033 -0.00996 -535.15409 -34.48146 -2.11855 42.65161 1.42875 -4.40265 -7.62936 -1.4033 -0.89239 -13.42874 -10.36318 3.70748 35.53439 88.54854 7.10923 -0.17014 -15.90075 11.88117 -0.77665 33.0298 -105.9548 15.05002 -2.30281 38.84081 -2.97045 -16.13902 -20.88444 -7.99901 -3.00942 -3.77595 43.31518 10.54246 5.69128 -27.0984 -8.92103 3.12338 3.86283
0.04488 0.00345 -0.0101 -535.04347 -34.81593 -2.07361 41.84572 1.5195 -4.39029 -7.28433 -1.25622 -0.95806 -12.3236 -10.43788 4.06676 34.98409 88.1856 7.12799 -0.22056 -14.59219 12.13876 -2.03894 32.86818 -102.20772 14.1098 -1.6393 39.74437 -2.96051 -15.64024 -20.97877 -8.07609 -3.06744 -3.8107 44.25222 10.17963 4.46297 -27.20117 -9.04673 3.20919 3.91414
